<svg xmlns="http://www.w3.org/2000/svg" viewBox="0 0 800 500" fill="none">
  <rect width="800" height="500" fill="#1a2332"/>
  <defs>
    <linearGradient id="frontBody" x1="0%" y1="0%" x2="100%" y2="0%">
      <stop offset="0%" style="stop-color:#2c3e50;stop-opacity:1" />
      <stop offset="50%" style="stop-color:#34495e;stop-opacity:1" />
      <stop offset="100%" style="stop-color:#2c3e50;stop-opacity:1" />
    </linearGradient>
  </defs>
  <!-- Suelo -->
  <rect x="0" y="380" width="800" height="120" fill="#1a1a1a"/>
  <!-- Cuerpo principal SUV - Vista Frontal -->
  <rect x="150" y="180" width="500" height="180" rx="30" fill="url(#frontBody)"/>
  <!-- Parabrisas -->
  <path d="M200 200 L250 130 L550 130 L600 200 Z" fill="#1a3a5a"/>
  <!-- Capó -->
  <rect x="180" y="280" width="440" height="60" rx="10" fill="#3d566e"/>
  <!-- Parrilla -->
  <rect x="250" y="340" width="300" height="40" rx="5" fill="#1a1a1a"/>
  <rect x="260" y="350" width="80" height="20" rx="3" fill="#333"/>
  <rect x="360" y="350" width="80" height="20" rx="3" fill="#333"/>
  <rect x="460" y="350" width="80" height="20" rx="3" fill="#333"/>
  <!-- Faros LED -->
  <rect x="160" y="260" width="60" height="25" rx="5" fill="#d4af37"/>
  <rect x="580" y="260" width="60" height="25" rx="5" fill="#d4af37"/>
  <!-- Luces antiniebla -->
  <circle cx="200" cy="350" r="15" fill="#ffffff" opacity="0.9"/>
  <circle cx="600" cy="350" r="15" fill="#ffffff" opacity="0.9"/>
  <!-- Ruedas -->
  <ellipse cx="220" cy="400" rx="50" ry="25" fill="#1a1a1a"/>
  <ellipse cx="580" cy="400" rx="50" ry="25" fill="#1a1a1a"/>
  <ellipse cx="220" cy="400" rx="30" ry="15" fill="#333"/>
  <ellipse cx="580" cy="400" rx="30" ry="15" fill="#333"/>
  <!-- Logo -->
  <circle cx="400" cy="360" r="20" fill="#d4af37"/>
  <!-- Reflejo suelo -->
  <ellipse cx="400" cy="450" rx="200" ry="20" fill="#34495e" opacity="0.3"/>
</svg>